# xmcd
#
# Track frame offsets:
# 150
# 10450
# 31100
# 48530
# 66915
# 82452
# 98377
# 112302
# 132182
# 149737
# 162357
# 178534
# 194980
# 205745
# 219220
# 245990
#
# Disc length: 3766 seconds
#
#
# Revision: 0
# Processed by: cddbd v1.5.1PL0 Copyright (c) Steve Scherf et al.
# Submitted via: FreeRIP 2.80 
#
DISCID=fa0eb410
DTITLE=Pekka Myllykoski ja Jyt‰jemmarit - Viek‰‰ minut baariin taas...
DYEAR=2004
DGENRE=
TTITLE0=Bosnia and Hersegovina
TTITLE1=Ilta Oopperass
TTITLE2=Viek‰‰ minut baariin taas
TTITLE3=Taas yksi juotu on
TTITLE4=Torin laidalla
TTITLE5=Ei kai sill‰ Peitsamollakaan ole helppoa
TTITLE6=Kapakka-kantri
TTITLE7=Sunnuntaihaamut
TTITLE8=Lankit lattiaan
TTITLE9=Puhun sekavia vain
TTITLE10=Kiviset miehet
TTITLE11=Syyskuu
TTITLE12=Tapahtui Kauniaisissa
TTITLE13=N‰inkˆ aika kuluu, Neil Young
TTITLE14=Kuulin l‰pi greipin
TTITLE15=Viek‰‰ minut baariin taas (DVD-video)
EXTD=
EXTT0=
EXTT1=
EXTT2=
EXTT3=
EXTT4=
EXTT5=
EXTT6=
EXTT7=
EXTT8=
EXTT9=
EXTT10=
EXTT11=
EXTT12=
EXTT13=
EXTT14=
EXTT15=
PLAYORDER=
